<svg xmlns="http://www.w3.org/2000/svg" viewBox="0 0 220.91 255.45"><defs><style>.cls-1{fill:#71bbcc;}.cls-2{fill:#ef738b;}.cls-3{fill:#fff;}</style></defs><g id="Calque_2" data-name="Calque 2"><g id="RFRK_logo_basic"><path class="cls-1" d="M136.81,164.73c12.6,0,17.74-5.32,19.83-12.89l-21.45-5.21v18.1Z"/><path class="cls-1" d="M179,157.27c-2.09,7.59-6.3,14.36-14.84,19.82l23.73,38.46v3.5H163L143.8,185.21a50.46,50.46,0,0,1-8.61.5v33.34H112.46V141.11l-9.59-2.33,1.62,80.27H82.39L80.68,134.4q0-.51,0-1l-25.2-6.12,1.64,91.79H34.74c0-15.27-.47-56.8-.92-97.05L0,113.79V229.35l107.46,26.1H220.91v-88Z"/><path class="cls-2" d="M80.68,92.58V67.07c0-5.4-3-10.76-9.32-10.82-5.24-.12-10.73,0-16,0v47.29h16C77.45,103.54,80.63,98.05,80.68,92.58Z"/><path class="cls-2" d="M71.36,123.51c-5.24-.12-16,0-16,0l.07,3.75,25.2,6.12C80.33,128.32,77.3,123.57,71.36,123.51Z"/><path class="cls-2" d="M33,36.27H71.36c20.91.08,31.39,15.42,31.42,30.8V92.58a31.63,31.63,0,0,1-7.65,20.9,31.48,31.48,0,0,1,7.65,20.93l.09,4.37,9.59,2.33v-9.46h22.73v15l21.45,5.21c1.61-5.85,1.4-13.06,1.4-20.19l.06-28.34h23.16L181,131.65c0,9.07.13,17.78-2,25.62l41.92,10.19V26.1L113.45,0H0V113.79L33.82,122C33.42,85.56,33,50.16,33,36.27Zm79.43,0h68.8v20H135.19V75.36h46.07v20H135.19v28.35H112.46Z"/><path class="cls-3" d="M181,131.65l.25-28.34H158.1L158,131.65c0,7.13.21,14.34-1.4,20.19-2.09,7.57-7.23,12.89-19.83,12.89h-1.62V131.65H112.46v87.4h22.73V185.71a50.46,50.46,0,0,0,8.61-.5L163,219.05h24.85v-3.5l-23.73-38.46c8.54-5.46,12.75-12.23,14.84-19.82C181.14,149.43,181,140.72,181,131.65Z"/><path class="cls-3" d="M135.19,95.33h46.07v-20H135.19V56.25h46.07v-20h-68.8v87.41h22.73Z"/><path class="cls-3" d="M95.13,113.48a31.63,31.63,0,0,0,7.65-20.9V67.07c0-15.38-10.51-30.72-31.42-30.8H33c0,13.89.39,49.29.79,85.73.45,40.25.92,81.78.92,97.05H57.09l-1.64-91.79-.07-3.75s10.74-.12,16,0c5.94.06,9,4.81,9.29,9.87q0,.51,0,1l1.71,84.65h22.1l-1.62-80.27-.09-4.37A31.48,31.48,0,0,0,95.13,113.48ZM55.38,56.25c5.25,0,10.74-.12,16,0,6.31.06,9.34,5.42,9.32,10.82V92.58c-.05,5.47-3.23,11-9.32,11h-16Z"/></g></g></svg>