<svg xmlns="http://www.w3.org/2000/svg" viewBox="0 0 388.72 255.45"><defs><style>.cls-1{fill:#71bbcc;}.cls-2{fill:#ef738b;}.cls-3{fill:#fff;}</style></defs><g id="Calque_2" data-name="Calque 2"><g id="RFRK_basic"><path class="cls-1" d="M303.5,199.64c6.49,0,13.23-3.5,13.23-10.62V170.36l-26.59-6.46V189C290.14,196.14,297,199.64,303.5,199.64Z"/><path class="cls-1" d="M216.36,164.17c12.86,0,17.94-5.53,19.94-13.34l-21.56-5.24v18.58Z"/><path class="cls-1" d="M89,151.06c-5.24-.12-10.74,0-16,0v21.86H89C101.08,172.92,101.71,151.19,89,151.06Z"/><path class="cls-1" d="M338.08,175.55V189.4c0,19.23-16.6,30.34-34.58,30.34s-34.72-11.11-34.72-30.34V158.71l-10.12-2.45c-2,7.77-6.24,14.7-15,20.28L267.43,215v3.5H242.58l-19.22-33.84a50.63,50.63,0,0,1-8.62.5v33.34H192V140.07l-9.09-2.21v13.2H150.58v12.37H180.3v19.85H150.58v15.36h33.47v19.85H128.36v-87.4H155l-34.65-8.42v.45H98.29V117.3L73,111.16v12H50.64V105.73L0,93.43V229.35l107.46,26.1H388.72v-67.6ZM120.39,218.49H98.29V203.78c0-5.42-3-10.83-9.32-10.89-5.24-.12-16,0-16,0v25.6H50.64v-87.4H89c31.23.11,39.21,34.31,23.77,51.77a31.58,31.58,0,0,1,7.65,20.93Z"/><path class="cls-2" d="M89,55.69c-5.24-.12-10.74,0-16,0V77.54H89C101.08,77.54,101.71,55.82,89,55.69Z"/><path class="cls-2" d="M50.64,35.71H89c31.23.12,39.21,34.32,23.77,51.78a31.57,31.57,0,0,1,7.65,20.92v14.26L155,131.09h27.88v6.77l9.09,2.21v-9h22.73v14.5l21.56,5.24c1.49-5.78,1.29-12.79,1.29-19.74l.06-28.32h23.17l-.26,28.32c0,8.89.13,17.45-1.9,25.17l10.12,2.45V131.09h21.36V163.9l26.59,6.46V131.09h21.35v44.46l50.64,12.3V26.1L281.26,0H0V93.43l50.64,12.3ZM268.78,94V35.71h21.36v68.64h26.5l.09-68.64h21.35v87.41h-69.3ZM192,35.71h68.81v20H214.74V74.8h46.08v20H214.74v28.35H192Zm-9.09,0v20H150.58V68.05H180.3V87.91H150.58v15.35h33.47v19.86H128.36V35.71Z"/><path class="cls-2" d="M89,97.52c-5.24-.13-16,0-16,0v13.64l25.3,6.14v-8.9C98.33,103,95.3,97.58,89,97.52Z"/><path class="cls-3" d="M338.08,131.09H316.73V189c0,7.12-6.74,10.62-13.23,10.62s-13.36-3.5-13.36-10.62V131.09H268.78V189.4c0,19.23,16.86,30.34,34.72,30.34s34.58-11.11,34.58-30.34V131.09Z"/><path class="cls-3" d="M260.56,131.09l.26-28.32H237.65l-.06,28.32c0,6.95.2,14-1.29,19.74-2,7.81-7.08,13.34-19.94,13.34h-1.62V131.09H192v87.4h22.73V185.15a50.63,50.63,0,0,0,8.62-.5l19.22,33.84h24.85V215l-23.72-38.45c8.71-5.58,12.92-12.51,15-20.28S260.56,140,260.56,131.09Z"/><path class="cls-3" d="M155,131.09H128.36v87.4h55.69V198.64H150.58V183.28H180.3V163.43H150.58V151.06h32.34v-20Z"/><path class="cls-3" d="M338.08,94V35.71H316.73l-.09,68.64h-26.5V35.71H268.78v87.41h69.3Z"/><path class="cls-3" d="M214.74,94.77h46.08v-20H214.74V55.69h46.08v-20H192v87.41h22.73Z"/><path class="cls-3" d="M128.36,123.12h55.69V103.26H150.58V87.91H180.3V68.05H150.58V55.69h32.34v-20H128.36Z"/><path class="cls-3" d="M89,131.09H50.64v87.4H73v-25.6s10.74-.12,16,0c6.33.06,9.36,5.47,9.32,10.89v14.71h22.1v-14.7a31.58,31.58,0,0,0-7.65-20.93C128.18,165.4,120.2,131.2,89,131.09Zm0,41.83H73V151.06c5.24,0,10.74-.12,16,0C101.71,151.19,101.08,172.92,89,172.92Z"/><path class="cls-3" d="M120.39,108.41a31.57,31.57,0,0,0-7.65-20.92C128.18,70,120.2,35.83,89,35.71H50.64v87.41H73V97.52s10.74-.13,16,0c6.33.06,9.36,5.47,9.32,10.88v14.72h22.1V108.41ZM89,77.54H73V55.69c5.24,0,10.74-.12,16,0C101.71,55.82,101.08,77.54,89,77.54Z"/></g></g></svg>